<svg width="18" height="18" viewBox="0 0 18 18" fill="none" xmlns="http://www.w3.org/2000/svg">
<path d="M9 0C4.0371 0 0 4.0371 0 9C0 13.9629 4.0371 18 9 18C13.9629 18 18 13.9622 18 9C18 4.0378 13.9629 0 9 0ZM9 16.6057C4.80674 16.6057 1.39426 13.194 1.39426 9C1.39426 4.80604 4.80674 1.39426 9 1.39426C13.1933 1.39426 16.6057 4.80604 16.6057 9C16.6057 13.194 13.194 16.6057 9 16.6057Z" fill="#6D6D6D"/>
<path d="M12.4857 8.24013H9.69715V5.4516C9.69715 5.06678 9.38553 4.75446 9.00001 4.75446C8.61448 4.75446 8.30286 5.06678 8.30286 5.4516V8.24013H5.51433C5.12881 8.24013 4.81718 8.55246 4.81718 8.93728C4.81718 9.3221 5.12881 9.63442 5.51433 9.63442H8.30286V12.4229C8.30286 12.8078 8.61448 13.1201 9.00001 13.1201C9.38553 13.1201 9.69715 12.8078 9.69715 12.4229V9.63442H12.4857C12.8712 9.63442 13.1828 9.3221 13.1828 8.93728C13.1828 8.55246 12.8712 8.24013 12.4857 8.24013Z" fill="#6D6D6D"/>
</svg>
