<svg width="16" height="16" viewBox="0 0 16 16" fill="none" xmlns="http://www.w3.org/2000/svg">
<path d="M13.7735 1.09866C12.9671 0.293651 11.6611 0.293651 10.8547 1.09866L10.1241 1.83329L2.34658 9.60667L2.33005 9.62333C2.32605 9.62733 2.32605 9.63159 2.32179 9.63159C2.31352 9.64399 2.30113 9.65625 2.29299 9.66865C2.29299 9.67278 2.28873 9.67278 2.28873 9.67692C2.28046 9.68931 2.27646 9.69758 2.26807 9.70997C2.26406 9.71411 2.26406 9.71811 2.25993 9.72237C2.2558 9.73477 2.25167 9.74303 2.24741 9.75543C2.24741 9.75943 2.2434 9.75943 2.2434 9.76369L0.51781 14.9527C0.46719 15.1005 0.505671 15.2641 0.616854 15.3737C0.694979 15.4508 0.800351 15.4939 0.909984 15.4935C0.954793 15.4928 0.999214 15.4858 1.04209 15.4729L6.22713 13.7432C6.23114 13.7432 6.23114 13.7432 6.2354 13.7392C6.24844 13.7353 6.26097 13.7297 6.27246 13.7225C6.27569 13.7221 6.27853 13.7207 6.28085 13.7185C6.29312 13.7102 6.30965 13.7018 6.32204 13.6936C6.33431 13.6854 6.34684 13.673 6.35923 13.6648C6.36337 13.6605 6.36737 13.6605 6.36737 13.6565C6.37163 13.6524 6.3799 13.6484 6.38403 13.64L14.8922 5.13185C15.6972 4.32542 15.6972 3.0195 14.8922 2.2132L13.7735 1.09866ZM6.09503 12.773L3.22184 9.89993L10.4131 2.70868L13.2863 5.58175L6.09503 12.773ZM2.81714 10.6636L5.32721 13.1736L1.5581 14.4285L2.81714 10.6636ZM14.3102 4.55385L13.8725 4.99561L10.9992 2.12229L11.4411 1.68066C11.9244 1.19771 12.7079 1.19771 13.1914 1.68066L14.3142 2.80347C14.7939 3.289 14.7921 4.07064 14.3102 4.55385Z" fill="#A0FF91"/>
</svg>
