<svg width="44" height="44" viewBox="0 0 44 44" fill="none" xmlns="http://www.w3.org/2000/svg">
<path d="M37.5977 35.0195V6.40234H8.98047V0H6.40234V6.40234H0V8.98047H6.40234V37.5977H35.0195V44H37.5977V37.5977H44V35.0195H37.5977ZM35.0195 26.641L32.4253 22.2809C32.4194 18.1011 29.0171 14.7024 24.8359 14.7024C23.3836 14.7024 21.9716 15.1143 20.7525 15.8935C20.1689 16.2666 19.6426 16.7154 19.1852 17.2252L15.8115 11.7226L8.98047 23.4883V8.98047H35.0195V26.641ZM20.6247 19.5731C21.542 18.1454 23.1057 17.2805 24.8359 17.2805C27.568 17.2805 29.795 19.4784 29.845 22.1987L25.6019 27.691L20.6247 19.5731ZM8.98047 28.6227L15.8717 16.7534L25.3573 32.2245L30.9977 24.9236L35.0195 31.6828V35.0195H8.98047V28.6227Z" fill="white"/>
</svg>
